<svg width="126" height="24" fill="none" xmlns="http://www.w3.org/2000/svg"><path d="M50.232 1.048v7.476c-.5227.52267-1.0827 1.16667-1.68 1.932V1.048h1.68Zm2.464 0v5.796c-.6347.28-1.1853.63467-1.652 1.064v-6.86h1.652Zm-41.16 22.428c-1.99733 0-3.79867-.4573-5.404-1.372-1.60533-.9333-2.86533-2.2027-3.78-3.808C1.43733 16.672.98 14.8613.98 12.864c0-1.9413.476-3.71467 1.428-5.32.952-1.60533 2.24933-2.86533 3.892-3.78 1.66133-.93333 3.49067-1.4 5.488-1.4 2.5387 0 4.6293.57867 6.272 1.736v1.652c-.784-.57867-1.708-1.008-2.772-1.288-1.064-.29867-2.2307-.448-3.5-.448-1.6613 0-3.18267.392-4.564 1.176-1.38133.784-2.47333 1.85733-3.276 3.22-.80267 1.344-1.204 2.828-1.204 4.452 0 1.68.38267 3.2013 1.148 4.564.76533 1.3627 1.82 2.436 3.164 3.22 1.344.784 2.83733 1.176 4.48 1.176 2.2587 0 4.0413-.6347 5.348-1.904 1.3067-1.2693 1.96-3.0053 1.96-5.208v-1.54h-7.112v-1.624h8.68v2.884c0 1.848-.364 3.4533-1.092 4.816-.7093 1.3627-1.736 2.408-3.08 3.136-1.3253.728-2.8933 1.092-4.704 1.092Zm0-2.492c-1.4747 0-2.81867-.3547-4.032-1.064s-2.17467-1.68-2.884-2.912c-.69067-1.2507-1.036-2.632-1.036-4.144 0-1.4747.364-2.8187 1.092-4.032C5.404 7.6 6.39333 6.62933 7.644 5.92c1.26933-.70933 2.6507-1.064 4.144-1.064 1.1573 0 2.2867.15867 3.388.476 1.1013.31733 2.0627.76533 2.884 1.344v1.596l-.112.084c-.952-.63467-1.9227-1.10133-2.912-1.4-.9893-.29867-2.0533-.448-3.192-.448-1.2133 0-2.31467.28-3.304.84-.97067.54133-1.736 1.29733-2.296 2.268-.54133.9707-.812 2.0533-.812 3.248 0 1.2507.252 2.3707.756 3.36.52267.9707 1.25067 1.7267 2.184 2.268.93333.5413 1.988.812 3.164.812.896 0 1.6987-.1493 2.408-.448.728-.3173 1.2973-.7467 1.708-1.288.4107-.56.616-1.176.616-1.848h-4.536v-1.68h6.272v1.092c0 1.1387-.2707 2.156-.812 3.052-.5413.8773-1.3067 1.568-2.296 2.072-.9707.4853-2.0907.728-3.36.728Zm27.272 2.492c-1.568 0-2.968-.3453-4.2-1.036-1.232-.6907-2.1933-1.652-2.884-2.884-.6907-1.232-1.036-2.6227-1.036-4.172 0-1.624.3547-3.0893 1.064-4.396.7093-1.32533 1.68-2.36133 2.912-3.108 1.2507-.74667 2.632-1.12 4.144-1.12s2.8747.35467 4.088 1.064c1.2133.69067 2.156 1.66133 2.828 2.912.6907 1.232 1.036 2.6133 1.036 4.144V23h-1.68v-8.092c0-1.2133-.2707-2.3053-.812-3.276-.5413-.9893-1.288-1.75467-2.24-2.296-.952-.56-2.0253-.84-3.22-.84-1.232 0-2.3333.29867-3.304.896-.9707.57867-1.736 1.3907-2.296 2.436-.5413 1.0453-.812 2.2307-.812 3.556 0 1.2507.2707 2.3613.812 3.332.5413.9707 1.2973 1.736 2.268 2.296.9707.5413 2.0813.812 3.332.812 1.2507 0 2.2493-.2987 2.996-.896v1.652c-.4293.3173-.8773.5413-1.344.672-.448.1493-.9987.224-1.652.224Zm17.892 0c-1.736 0-3.248-.448-4.536-1.344-1.288-.9147-2.1747-2.0627-2.66-3.444l1.176-1.596c.1867.896.5693 1.708 1.148 2.436.5973.7093 1.316 1.2693 2.156 1.68.8587.4107 1.7733.616 2.744.616 1.176 0 2.2307-.2893 3.164-.868.952-.5973 1.6987-1.4 2.24-2.408.5413-1.0267.812-2.1653.812-3.416 0-1.2693-.28-2.408-.84-3.416-.5413-1.0267-1.2973-1.82-2.268-2.38-.952-.57867-2.0253-.868-3.22-.868-1.288 0-2.4173.308-3.388.924-.9707.616-1.988 1.5773-3.052 2.884-.4667.56-1.344 1.708-2.632 3.444v-2.464c.9333-1.344 1.7453-2.4173 2.436-3.22.6907-.82133 1.6053-1.568 2.744-2.24 1.1387-.69067 2.436-1.036 3.892-1.036 1.512 0 2.8747.364 4.088 1.092 1.2133.728 2.1653 1.736 2.856 3.024.6907 1.2693 1.036 2.688 1.036 4.256 0 1.5493-.3453 2.9587-1.036 4.228-.672 1.2693-1.6147 2.2773-2.828 3.024-1.1947.728-2.5387 1.092-4.032 1.092Zm-35.168-9.128c0-1.4747.2987-2.772.896-3.892.5973-1.12 1.4373-1.988 2.52-2.604 1.1013-.616 2.3707-.924 3.808-.924 1.568 0 2.8933.392 3.976 1.176-.4107.35467-.7747.728-1.092 1.12-.2613-.18667-.6627-.34533-1.204-.476-.5413-.13067-1.0733-.196-1.596-.196-1.1013 0-2.0813.24267-2.94.728-.8587.48533-1.5307 1.1667-2.016 2.044-.4667.8773-.7 1.876-.7 2.996V23h-1.652v-8.652Zm35.196 6.664c-.9707 0-1.8573-.2427-2.66-.728-.784-.4853-1.4187-1.092-1.904-1.82-.4667-.7467-.7373-1.4747-.812-2.184l1.288-1.764h.056v.252c0 .8027.168 1.5587.504 2.268.3547.6907.84 1.2507 1.456 1.68.616.4107 1.3067.616 2.072.616 1.1013 0 1.9973-.392 2.688-1.176.6907-.8027 1.036-1.82 1.036-3.052 0-1.1947-.364-2.184-1.092-2.968-.7093-.8027-1.6333-1.204-2.772-1.204-.672 0-1.2693.1307-1.792.392-.5227.2613-.9893.6067-1.4 1.036-.4107.4293-.952 1.0453-1.624 1.848-.224.2987-.4013.5227-.532.672-1.5493 1.8667-2.7813 3.4813-3.696 4.844v-2.688l1.932-2.576c.2053-.2613.5227-.672.952-1.232 1.0267-1.4 2.0253-2.408 2.996-3.024.9893-.63467 2.0533-.952 3.192-.952 1.0453 0 1.988.252 2.828.756.8587.504 1.5213 1.204 1.988 2.1.4853.896.728 1.8947.728 2.996s-.2427 2.1093-.728 3.024c-.4667.896-1.1107 1.6053-1.932 2.128-.8213.504-1.7453.756-2.772.756ZM42.644 15.02c0-1.176-.364-2.1467-1.092-2.912-.728-.784-1.652-1.176-2.772-1.176-1.1387 0-2.072.42-2.8 1.26-.728.84-1.092 1.9133-1.092 3.22 0 1.2133.3547 2.1747 1.064 2.884.7093.6907 1.6707 1.036 2.884 1.036.5787 0 1.12-.0747 1.624-.224.5227-.168.952-.392 1.288-.672l.056.028v1.652c-.8027.5973-1.8013.896-2.996.896-1.1013 0-2.0813-.2333-2.94-.7-.84-.4667-1.5027-1.12-1.988-1.96-.4667-.8587-.7-1.8387-.7-2.94 0-1.1947.2333-2.2493.7-3.164.4853-.9333 1.1573-1.6613 2.016-2.184.8587-.52267 1.8293-.784 2.912-.784 1.0453 0 1.9787.24267 2.8.728.84.4853 1.4933 1.1573 1.96 2.016.4853.8587.728 1.8293.728 2.912V23h-1.652v-7.98Zm-18.648-.7c0-.9707.2053-1.8293.616-2.576.4107-.7653.98-1.3533 1.708-1.764.728-.42933 1.5587-.644 2.492-.644.784 0 1.5587.21467 2.324.644-.1867.2987-.4293.7653-.728 1.4-.4853-.2427-1.0267-.364-1.624-.364-.9333 0-1.6893.308-2.268.924-.5787.616-.868 1.4187-.868 2.408V23h-1.652v-8.68Zm52.5263 9.1c-2.0347 0-3.8267-.4293-5.376-1.288-1.5494-.8773-2.7534-2.1-3.612-3.668-.8587-1.5867-1.288-3.416-1.288-5.488 0-2.128.42-3.98533 1.26-5.572.8586-1.58667 2.072-2.80933 3.64-3.668 1.568-.87733 3.3973-1.316 5.488-1.316 2.4453 0 4.5733.588 6.384 1.764v3.444l-.196.028c-1.8667-1.344-3.8827-2.016-6.048-2.016-1.4187 0-2.6694.29867-3.752.896-1.0827.59733-1.9227 1.44667-2.52 2.548-.5787 1.1013-.868 2.38-.868 3.836 0 1.4373.28 2.7067.84 3.808.5786 1.1013 1.3906 1.96 2.436 2.576 1.0453.5973 2.2493.896 3.612.896 1.6613 0 2.996-.4573 4.004-1.372 1.0266-.9333 1.54-2.1467 1.54-3.64h-5.6v-3.024h8.988v2.24c0 1.792-.3734 3.3693-1.12 4.732-.728 1.3627-1.7734 2.4173-3.136 3.164-1.344.7467-2.9027 1.12-4.676 1.12ZM89.6619 5.78c-.5787 0-1.064-.17733-1.456-.532-.3733-.37333-.56-.84-.56-1.4 0-.56.1867-1.01733.56-1.372.392-.37333.8773-.56 1.456-.56s1.0547.18667 1.428.56c.392.35467.588.812.588 1.372s-.196 1.02667-.588 1.4c-.3733.35467-.8493.532-1.428.532Zm-1.596 2.044h3.22V23h-3.22V7.824Zm22.1191 12.32c.634 0 1.4-.112 2.296-.336v3.052c-1.008.28-2.054.42-3.136.42-1.251 0-2.24-.3733-2.968-1.12-.728-.7467-1.092-1.7547-1.092-3.024V6.424c0-.82133-.299-1.47467-.896-1.96-.598-.48533-1.363-.728-2.296-.728-.915 0-1.671.26133-2.2684.784-.5973.504-.896 1.176-.896 2.016v1.288h3.6964v2.996h-3.6964V23h-3.22V10.82h-2.38V7.824h2.38V6.228c0-1.064.2707-1.99733.812-2.8.5413-.80267 1.2973-1.41867 2.268-1.848.9707-.42933 2.0724-.644001 3.3044-.644001 1.25 0 2.361.224001 3.332.672001.97.42933 1.726 1.04533 2.268 1.848.541.784.812 1.708.812 2.772v1.596h3.64v2.996h-3.64v7.672c0 .4667.158.8587.476 1.176.317.3173.718.476 1.204.476Zm8.832 3.276c-1.755 0-3.407-.3733-4.956-1.12v-3.08l.084-.056c.915.4293 1.755.7373 2.52.924.765.1867 1.549.28 2.352.28 2.053 0 3.08-.5693 3.08-1.708 0-.448-.187-.812-.56-1.092-.355-.28-.989-.532-1.904-.756l-1.512-.364c-1.437-.3547-2.529-.868-3.276-1.54-.747-.6907-1.12-1.6613-1.12-2.912 0-1.4933.541-2.64133 1.624-3.444 1.101-.82133 2.66-1.232 4.676-1.232 1.773 0 3.22.28933 4.34.868v3.08l-.084.056c-.597-.2987-1.288-.532-2.072-.7-.784-.1867-1.559-.28-2.324-.28-.896 0-1.577.1307-2.044.392-.467.2613-.7.644-.7 1.148 0 .4853.224.8493.672 1.092.448.224 1.204.4573 2.268.7l1.232.28c1.213.28 2.193.7933 2.94 1.54.747.728 1.12 1.7267 1.12 2.996 0 1.5307-.569 2.7347-1.708 3.612s-2.688 1.316-4.648 1.316Z" fill="#fff"/></svg>